<mxfile host="app.diagrams.net" modified="2022-02-09T09:20:30.313Z" agent="5.0 (Windows NT 10.0; Win64; x64) AppleWebKit/537.36 (KHTML, like Gecko) Chrome/97.0.4692.99 Safari/537.36" etag="LVQQs680rWZ4XORfp-1B" version="16.4.7" type="github" pages="6">
  <diagram id="phh13phxZibnUKDf9sYL" name="Page-1">
    <mxGraphModel dx="1422" dy="762" grid="0" gridSize="10" guides="1" tooltips="1" connect="1" arrows="1" fold="1" page="1" pageScale="1" pageWidth="1169" pageHeight="827" math="0" shadow="0">
      <root>
        <mxCell id="0" />
        <mxCell id="1" parent="0" />
        <mxCell id="SckX9SxhY6CVib2tG9Dw-3" style="edgeStyle=orthogonalEdgeStyle;rounded=0;orthogonalLoop=1;jettySize=auto;html=1;exitX=0.5;exitY=1;exitDx=0;exitDy=0;" edge="1" parent="1" source="SckX9SxhY6CVib2tG9Dw-1" target="SckX9SxhY6CVib2tG9Dw-2">
          <mxGeometry relative="1" as="geometry" />
        </mxCell>
        <mxCell id="SckX9SxhY6CVib2tG9Dw-6" style="edgeStyle=orthogonalEdgeStyle;rounded=0;orthogonalLoop=1;jettySize=auto;html=1;exitX=0.5;exitY=1;exitDx=0;exitDy=0;" edge="1" parent="1" source="SckX9SxhY6CVib2tG9Dw-1" target="SckX9SxhY6CVib2tG9Dw-5">
          <mxGeometry relative="1" as="geometry" />
        </mxCell>
        <mxCell id="SckX9SxhY6CVib2tG9Dw-1" value="直播间样式" style="rounded=1;whiteSpace=wrap;html=1;" vertex="1" parent="1">
          <mxGeometry x="460" y="81" width="120" height="60" as="geometry" />
        </mxCell>
        <mxCell id="SckX9SxhY6CVib2tG9Dw-2" value="识别直播流位置，通过人眼跟踪确定是否在观看区域内" style="rounded=1;whiteSpace=wrap;html=1;" vertex="1" parent="1">
          <mxGeometry x="315" y="205" width="120" height="60" as="geometry" />
        </mxCell>
        <mxCell id="SckX9SxhY6CVib2tG9Dw-4" value="横屏或者电影电视剧资源样式" style="text;html=1;strokeColor=none;fillColor=none;align=center;verticalAlign=middle;whiteSpace=wrap;rounded=0;" vertex="1" parent="1">
          <mxGeometry x="330" y="145" width="163" height="30" as="geometry" />
        </mxCell>
        <mxCell id="SckX9SxhY6CVib2tG9Dw-9" style="edgeStyle=orthogonalEdgeStyle;rounded=0;orthogonalLoop=1;jettySize=auto;html=1;exitX=0.5;exitY=1;exitDx=0;exitDy=0;" edge="1" parent="1" source="SckX9SxhY6CVib2tG9Dw-5" target="SckX9SxhY6CVib2tG9Dw-8">
          <mxGeometry relative="1" as="geometry" />
        </mxCell>
        <mxCell id="SckX9SxhY6CVib2tG9Dw-11" style="edgeStyle=orthogonalEdgeStyle;rounded=0;orthogonalLoop=1;jettySize=auto;html=1;exitX=0.5;exitY=1;exitDx=0;exitDy=0;" edge="1" parent="1" source="SckX9SxhY6CVib2tG9Dw-5" target="SckX9SxhY6CVib2tG9Dw-10">
          <mxGeometry relative="1" as="geometry" />
        </mxCell>
        <mxCell id="SckX9SxhY6CVib2tG9Dw-5" value="客户端检测是否人脸区域" style="rounded=1;whiteSpace=wrap;html=1;" vertex="1" parent="1">
          <mxGeometry x="624" y="205" width="120" height="60" as="geometry" />
        </mxCell>
        <mxCell id="SckX9SxhY6CVib2tG9Dw-7" value="竖屏直播样式" style="text;html=1;strokeColor=none;fillColor=none;align=center;verticalAlign=middle;whiteSpace=wrap;rounded=0;" vertex="1" parent="1">
          <mxGeometry x="587" y="145" width="111" height="30" as="geometry" />
        </mxCell>
        <mxCell id="SckX9SxhY6CVib2tG9Dw-16" style="edgeStyle=orthogonalEdgeStyle;rounded=0;orthogonalLoop=1;jettySize=auto;html=1;exitX=0.5;exitY=1;exitDx=0;exitDy=0;" edge="1" parent="1" source="SckX9SxhY6CVib2tG9Dw-8" target="SckX9SxhY6CVib2tG9Dw-15">
          <mxGeometry relative="1" as="geometry">
            <Array as="points">
              <mxPoint x="585" y="557" />
              <mxPoint x="705" y="557" />
            </Array>
          </mxGeometry>
        </mxCell>
        <mxCell id="SckX9SxhY6CVib2tG9Dw-8" value="人脸区域超过一定范围" style="rounded=1;whiteSpace=wrap;html=1;" vertex="1" parent="1">
          <mxGeometry x="525" y="331" width="120" height="60" as="geometry" />
        </mxCell>
        <mxCell id="SckX9SxhY6CVib2tG9Dw-13" style="edgeStyle=orthogonalEdgeStyle;rounded=0;orthogonalLoop=1;jettySize=auto;html=1;exitX=0.5;exitY=1;exitDx=0;exitDy=0;" edge="1" parent="1" source="SckX9SxhY6CVib2tG9Dw-10" target="SckX9SxhY6CVib2tG9Dw-12">
          <mxGeometry relative="1" as="geometry" />
        </mxCell>
        <mxCell id="SckX9SxhY6CVib2tG9Dw-10" value="人脸区域太小，进行人体躯干检测" style="rounded=1;whiteSpace=wrap;html=1;" vertex="1" parent="1">
          <mxGeometry x="770" y="331" width="120" height="60" as="geometry" />
        </mxCell>
        <mxCell id="SckX9SxhY6CVib2tG9Dw-17" style="edgeStyle=orthogonalEdgeStyle;rounded=0;orthogonalLoop=1;jettySize=auto;html=1;exitX=0.5;exitY=1;exitDx=0;exitDy=0;" edge="1" parent="1" source="SckX9SxhY6CVib2tG9Dw-12" target="SckX9SxhY6CVib2tG9Dw-15">
          <mxGeometry relative="1" as="geometry" />
        </mxCell>
        <mxCell id="SckX9SxhY6CVib2tG9Dw-12" value="人体区域超过一定范围" style="rounded=1;whiteSpace=wrap;html=1;" vertex="1" parent="1">
          <mxGeometry x="770" y="470" width="120" height="60" as="geometry" />
        </mxCell>
        <mxCell id="SckX9SxhY6CVib2tG9Dw-15" value="客户端检测人眼视线是否在人脸或者人体关键区域内" style="rounded=1;whiteSpace=wrap;html=1;" vertex="1" parent="1">
          <mxGeometry x="645" y="589" width="120" height="60" as="geometry" />
        </mxCell>
      </root>
    </mxGraphModel>
  </diagram>
  <diagram id="6WB7EOOEmwUDK4e5hUVy" name="Page-2">
    <mxGraphModel dx="1422" dy="762" grid="0" gridSize="10" guides="1" tooltips="1" connect="1" arrows="1" fold="1" page="1" pageScale="1" pageWidth="1169" pageHeight="827" math="0" shadow="0">
      <root>
        <mxCell id="82yjHZlxhQ0as9ydRFyd-0" />
        <mxCell id="82yjHZlxhQ0as9ydRFyd-1" parent="82yjHZlxhQ0as9ydRFyd-0" />
        <mxCell id="82yjHZlxhQ0as9ydRFyd-4" style="edgeStyle=orthogonalEdgeStyle;rounded=0;orthogonalLoop=1;jettySize=auto;html=1;exitX=0.5;exitY=1;exitDx=0;exitDy=0;" edge="1" parent="82yjHZlxhQ0as9ydRFyd-1" source="82yjHZlxhQ0as9ydRFyd-2" target="82yjHZlxhQ0as9ydRFyd-3">
          <mxGeometry relative="1" as="geometry" />
        </mxCell>
        <mxCell id="82yjHZlxhQ0as9ydRFyd-2" value="客户端检测到用户视线进入关键区域" style="rounded=1;whiteSpace=wrap;html=1;" vertex="1" parent="82yjHZlxhQ0as9ydRFyd-1">
          <mxGeometry x="496" y="51" width="120" height="60" as="geometry" />
        </mxCell>
        <mxCell id="82yjHZlxhQ0as9ydRFyd-6" style="edgeStyle=orthogonalEdgeStyle;rounded=0;orthogonalLoop=1;jettySize=auto;html=1;exitX=1;exitY=0.5;exitDx=0;exitDy=0;" edge="1" parent="82yjHZlxhQ0as9ydRFyd-1" source="82yjHZlxhQ0as9ydRFyd-3" target="82yjHZlxhQ0as9ydRFyd-5">
          <mxGeometry relative="1" as="geometry" />
        </mxCell>
        <mxCell id="82yjHZlxhQ0as9ydRFyd-3" value="活动条控件停止轮播" style="rounded=1;whiteSpace=wrap;html=1;" vertex="1" parent="82yjHZlxhQ0as9ydRFyd-1">
          <mxGeometry x="496" y="186" width="120" height="60" as="geometry" />
        </mxCell>
        <mxCell id="82yjHZlxhQ0as9ydRFyd-8" style="edgeStyle=orthogonalEdgeStyle;rounded=0;orthogonalLoop=1;jettySize=auto;html=1;exitX=0.5;exitY=0;exitDx=0;exitDy=0;" edge="1" parent="82yjHZlxhQ0as9ydRFyd-1" source="82yjHZlxhQ0as9ydRFyd-5" target="82yjHZlxhQ0as9ydRFyd-7">
          <mxGeometry relative="1" as="geometry" />
        </mxCell>
        <mxCell id="82yjHZlxhQ0as9ydRFyd-5" value="客户端检测到用户视线离开关键区域" style="rounded=1;whiteSpace=wrap;html=1;" vertex="1" parent="82yjHZlxhQ0as9ydRFyd-1">
          <mxGeometry x="730" y="186" width="120" height="60" as="geometry" />
        </mxCell>
        <mxCell id="82yjHZlxhQ0as9ydRFyd-9" style="edgeStyle=orthogonalEdgeStyle;rounded=0;orthogonalLoop=1;jettySize=auto;html=1;exitX=0;exitY=0.5;exitDx=0;exitDy=0;" edge="1" parent="82yjHZlxhQ0as9ydRFyd-1" source="82yjHZlxhQ0as9ydRFyd-7" target="82yjHZlxhQ0as9ydRFyd-2">
          <mxGeometry relative="1" as="geometry" />
        </mxCell>
        <mxCell id="82yjHZlxhQ0as9ydRFyd-7" value="活动条控件开始轮播" style="rounded=1;whiteSpace=wrap;html=1;" vertex="1" parent="82yjHZlxhQ0as9ydRFyd-1">
          <mxGeometry x="730" y="51" width="120" height="60" as="geometry" />
        </mxCell>
      </root>
    </mxGraphModel>
  </diagram>
  <diagram id="zt0XC9bMa8MSj1e_uKq_" name="Page-3">
    <mxGraphModel dx="1422" dy="762" grid="0" gridSize="10" guides="1" tooltips="1" connect="1" arrows="1" fold="1" page="1" pageScale="1" pageWidth="1169" pageHeight="827" math="0" shadow="0">
      <root>
        <mxCell id="04YvLBU7l1D3zRaUmDgL-0" />
        <mxCell id="04YvLBU7l1D3zRaUmDgL-1" parent="04YvLBU7l1D3zRaUmDgL-0" />
        <mxCell id="04YvLBU7l1D3zRaUmDgL-5" style="edgeStyle=orthogonalEdgeStyle;rounded=0;orthogonalLoop=1;jettySize=auto;html=1;exitX=0.5;exitY=1;exitDx=0;exitDy=0;entryX=0.5;entryY=0;entryDx=0;entryDy=0;" edge="1" parent="04YvLBU7l1D3zRaUmDgL-1" source="04YvLBU7l1D3zRaUmDgL-2" target="04YvLBU7l1D3zRaUmDgL-3">
          <mxGeometry relative="1" as="geometry" />
        </mxCell>
        <mxCell id="04YvLBU7l1D3zRaUmDgL-6" style="edgeStyle=orthogonalEdgeStyle;rounded=0;orthogonalLoop=1;jettySize=auto;html=1;exitX=0.5;exitY=1;exitDx=0;exitDy=0;" edge="1" parent="04YvLBU7l1D3zRaUmDgL-1" source="04YvLBU7l1D3zRaUmDgL-2" target="04YvLBU7l1D3zRaUmDgL-4">
          <mxGeometry relative="1" as="geometry" />
        </mxCell>
        <mxCell id="04YvLBU7l1D3zRaUmDgL-8" style="edgeStyle=orthogonalEdgeStyle;rounded=0;orthogonalLoop=1;jettySize=auto;html=1;exitX=0.5;exitY=1;exitDx=0;exitDy=0;" edge="1" parent="04YvLBU7l1D3zRaUmDgL-1" source="04YvLBU7l1D3zRaUmDgL-2" target="04YvLBU7l1D3zRaUmDgL-7">
          <mxGeometry relative="1" as="geometry" />
        </mxCell>
        <mxCell id="04YvLBU7l1D3zRaUmDgL-2" value="客户端识别到用户视线在关键区域内" style="rounded=1;whiteSpace=wrap;html=1;" vertex="1" parent="04YvLBU7l1D3zRaUmDgL-1">
          <mxGeometry x="542" y="64" width="120" height="60" as="geometry" />
        </mxCell>
        <mxCell id="04YvLBU7l1D3zRaUmDgL-3" value="活动条减慢切换速度" style="rounded=1;whiteSpace=wrap;html=1;" vertex="1" parent="04YvLBU7l1D3zRaUmDgL-1">
          <mxGeometry x="345" y="181" width="120" height="60" as="geometry" />
        </mxCell>
        <mxCell id="04YvLBU7l1D3zRaUmDgL-4" value="活动条和背后区域图片混色融合" style="rounded=1;whiteSpace=wrap;html=1;" vertex="1" parent="04YvLBU7l1D3zRaUmDgL-1">
          <mxGeometry x="542" y="181" width="120" height="60" as="geometry" />
        </mxCell>
        <mxCell id="04YvLBU7l1D3zRaUmDgL-7" value="通过淡入淡出的操作来减弱感知" style="rounded=1;whiteSpace=wrap;html=1;" vertex="1" parent="04YvLBU7l1D3zRaUmDgL-1">
          <mxGeometry x="750" y="181" width="120" height="60" as="geometry" />
        </mxCell>
      </root>
    </mxGraphModel>
  </diagram>
  <diagram id="g2miSNkYmQ57JBjhDikb" name="Page-4">
    <mxGraphModel dx="1422" dy="762" grid="0" gridSize="10" guides="1" tooltips="1" connect="1" arrows="1" fold="1" page="1" pageScale="1" pageWidth="1169" pageHeight="827" math="0" shadow="0">
      <root>
        <mxCell id="Qi9-_R9NcUBrjts0eLu7-0" />
        <mxCell id="Qi9-_R9NcUBrjts0eLu7-1" parent="Qi9-_R9NcUBrjts0eLu7-0" />
        <mxCell id="Qi9-_R9NcUBrjts0eLu7-5" style="edgeStyle=orthogonalEdgeStyle;rounded=0;orthogonalLoop=1;jettySize=auto;html=1;exitX=0.5;exitY=1;exitDx=0;exitDy=0;" edge="1" parent="Qi9-_R9NcUBrjts0eLu7-1" source="Qi9-_R9NcUBrjts0eLu7-2" target="Qi9-_R9NcUBrjts0eLu7-3">
          <mxGeometry relative="1" as="geometry" />
        </mxCell>
        <mxCell id="Qi9-_R9NcUBrjts0eLu7-2" value="客户端获得活动条区域" style="rounded=1;whiteSpace=wrap;html=1;" vertex="1" parent="Qi9-_R9NcUBrjts0eLu7-1">
          <mxGeometry x="479" y="45" width="120" height="60" as="geometry" />
        </mxCell>
        <mxCell id="Qi9-_R9NcUBrjts0eLu7-6" style="edgeStyle=orthogonalEdgeStyle;rounded=0;orthogonalLoop=1;jettySize=auto;html=1;exitX=0.5;exitY=1;exitDx=0;exitDy=0;" edge="1" parent="Qi9-_R9NcUBrjts0eLu7-1" source="Qi9-_R9NcUBrjts0eLu7-3" target="Qi9-_R9NcUBrjts0eLu7-4">
          <mxGeometry relative="1" as="geometry" />
        </mxCell>
        <mxCell id="Qi9-_R9NcUBrjts0eLu7-3" value="客户端识别人眼视线区域为活动条内" style="rounded=1;whiteSpace=wrap;html=1;" vertex="1" parent="Qi9-_R9NcUBrjts0eLu7-1">
          <mxGeometry x="479" y="166" width="120" height="60" as="geometry" />
        </mxCell>
        <mxCell id="Qi9-_R9NcUBrjts0eLu7-4" value="客户端停止活动条的轮播，减弱其他活动条打断的情况" style="rounded=1;whiteSpace=wrap;html=1;" vertex="1" parent="Qi9-_R9NcUBrjts0eLu7-1">
          <mxGeometry x="479" y="274" width="120" height="60" as="geometry" />
        </mxCell>
      </root>
    </mxGraphModel>
  </diagram>
  <diagram id="RGoVZjaILtrKPHlXWjxi" name="Page-5">
    <mxGraphModel dx="1422" dy="762" grid="0" gridSize="10" guides="1" tooltips="1" connect="1" arrows="1" fold="1" page="1" pageScale="1" pageWidth="1169" pageHeight="827" math="0" shadow="0">
      <root>
        <mxCell id="7ie1KCkJ6Yt53QE21wUM-0" />
        <mxCell id="7ie1KCkJ6Yt53QE21wUM-1" parent="7ie1KCkJ6Yt53QE21wUM-0" />
        <mxCell id="7ie1KCkJ6Yt53QE21wUM-4" style="edgeStyle=orthogonalEdgeStyle;rounded=0;orthogonalLoop=1;jettySize=auto;html=1;exitX=0.5;exitY=1;exitDx=0;exitDy=0;" edge="1" parent="7ie1KCkJ6Yt53QE21wUM-1" source="7ie1KCkJ6Yt53QE21wUM-2" target="7ie1KCkJ6Yt53QE21wUM-3">
          <mxGeometry relative="1" as="geometry" />
        </mxCell>
        <mxCell id="7ie1KCkJ6Yt53QE21wUM-2" value="服务器推动新的活动条到客户端" style="rounded=1;whiteSpace=wrap;html=1;" vertex="1" parent="7ie1KCkJ6Yt53QE21wUM-1">
          <mxGeometry x="495" y="61" width="120" height="60" as="geometry" />
        </mxCell>
        <mxCell id="7ie1KCkJ6Yt53QE21wUM-7" style="edgeStyle=orthogonalEdgeStyle;rounded=0;orthogonalLoop=1;jettySize=auto;html=1;exitX=0.5;exitY=1;exitDx=0;exitDy=0;" edge="1" parent="7ie1KCkJ6Yt53QE21wUM-1" source="7ie1KCkJ6Yt53QE21wUM-3" target="7ie1KCkJ6Yt53QE21wUM-5">
          <mxGeometry relative="1" as="geometry" />
        </mxCell>
        <mxCell id="7ie1KCkJ6Yt53QE21wUM-3" value="客户端记录差异数据，并放入列表" style="rounded=1;whiteSpace=wrap;html=1;" vertex="1" parent="7ie1KCkJ6Yt53QE21wUM-1">
          <mxGeometry x="495" y="175" width="120" height="60" as="geometry" />
        </mxCell>
        <mxCell id="7ie1KCkJ6Yt53QE21wUM-9" style="edgeStyle=orthogonalEdgeStyle;rounded=0;orthogonalLoop=1;jettySize=auto;html=1;exitX=0.5;exitY=1;exitDx=0;exitDy=0;" edge="1" parent="7ie1KCkJ6Yt53QE21wUM-1" source="7ie1KCkJ6Yt53QE21wUM-5" target="7ie1KCkJ6Yt53QE21wUM-6">
          <mxGeometry relative="1" as="geometry" />
        </mxCell>
        <mxCell id="7ie1KCkJ6Yt53QE21wUM-5" value="用户视线离开视频关键区域后，计算视线最近的活动条位置" style="rounded=1;whiteSpace=wrap;html=1;" vertex="1" parent="7ie1KCkJ6Yt53QE21wUM-1">
          <mxGeometry x="495" y="289" width="120" height="60" as="geometry" />
        </mxCell>
        <mxCell id="7ie1KCkJ6Yt53QE21wUM-6" value="此活动条强制刷新最新推送的活动条信息" style="rounded=1;whiteSpace=wrap;html=1;" vertex="1" parent="7ie1KCkJ6Yt53QE21wUM-1">
          <mxGeometry x="495" y="403" width="120" height="60" as="geometry" />
        </mxCell>
      </root>
    </mxGraphModel>
  </diagram>
  <diagram id="UrofCAxE5cK8zwgTHtaP" name="Page-6">
    <mxGraphModel dx="1422" dy="762" grid="0" gridSize="10" guides="1" tooltips="1" connect="1" arrows="1" fold="1" page="1" pageScale="1" pageWidth="1169" pageHeight="827" math="0" shadow="0">
      <root>
        <mxCell id="G_rfB24nBxsLpoIIv9jK-0" />
        <mxCell id="G_rfB24nBxsLpoIIv9jK-1" parent="G_rfB24nBxsLpoIIv9jK-0" />
        <mxCell id="G_rfB24nBxsLpoIIv9jK-5" style="edgeStyle=orthogonalEdgeStyle;rounded=0;orthogonalLoop=1;jettySize=auto;html=1;exitX=0.5;exitY=1;exitDx=0;exitDy=0;" edge="1" parent="G_rfB24nBxsLpoIIv9jK-1" source="G_rfB24nBxsLpoIIv9jK-2" target="G_rfB24nBxsLpoIIv9jK-3">
          <mxGeometry relative="1" as="geometry" />
        </mxCell>
        <mxCell id="G_rfB24nBxsLpoIIv9jK-2" value="服务器给每个活动条配置一个关键词" style="rounded=1;whiteSpace=wrap;html=1;" vertex="1" parent="G_rfB24nBxsLpoIIv9jK-1">
          <mxGeometry x="465" y="57" width="120" height="60" as="geometry" />
        </mxCell>
        <mxCell id="G_rfB24nBxsLpoIIv9jK-6" style="edgeStyle=orthogonalEdgeStyle;rounded=0;orthogonalLoop=1;jettySize=auto;html=1;exitX=0.5;exitY=1;exitDx=0;exitDy=0;" edge="1" parent="G_rfB24nBxsLpoIIv9jK-1" source="G_rfB24nBxsLpoIIv9jK-3" target="G_rfB24nBxsLpoIIv9jK-4">
          <mxGeometry relative="1" as="geometry" />
        </mxCell>
        <mxCell id="G_rfB24nBxsLpoIIv9jK-3" value="服务器通过采集直播间内语音，进行关键词识别" style="rounded=1;whiteSpace=wrap;html=1;" vertex="1" parent="G_rfB24nBxsLpoIIv9jK-1">
          <mxGeometry x="465" y="174" width="120" height="60" as="geometry" />
        </mxCell>
        <mxCell id="G_rfB24nBxsLpoIIv9jK-9" style="edgeStyle=orthogonalEdgeStyle;rounded=0;orthogonalLoop=1;jettySize=auto;html=1;exitX=0.5;exitY=1;exitDx=0;exitDy=0;" edge="1" parent="G_rfB24nBxsLpoIIv9jK-1" source="G_rfB24nBxsLpoIIv9jK-4" target="G_rfB24nBxsLpoIIv9jK-7">
          <mxGeometry relative="1" as="geometry" />
        </mxCell>
        <mxCell id="G_rfB24nBxsLpoIIv9jK-4" value="识别到活动条对应的关键词后，服务器推送信息到客户端" style="rounded=1;whiteSpace=wrap;html=1;" vertex="1" parent="G_rfB24nBxsLpoIIv9jK-1">
          <mxGeometry x="465" y="299" width="120" height="60" as="geometry" />
        </mxCell>
        <mxCell id="G_rfB24nBxsLpoIIv9jK-7" value="客户端收到信息后，强制显示对应的活动条" style="rounded=1;whiteSpace=wrap;html=1;" vertex="1" parent="G_rfB24nBxsLpoIIv9jK-1">
          <mxGeometry x="465" y="424" width="120" height="60" as="geometry" />
        </mxCell>
      </root>
    </mxGraphModel>
  </diagram>
</mxfile>
